<?xml version="1.0" encoding="UTF-8" standalone="no"?>
<!DOCTYPE svg PUBLIC "-//W3C//DTD SVG 1.1//EN"
 "http://www.w3.org/Graphics/SVG/1.1/DTD/svg11.dtd">
<!-- Generated by graphviz version 15.0.0 (20260523.1842)
 -->
<!-- Pages: 1 -->
<svg width="720pt" height="359pt"
 viewBox="0.00 0.00 720.00 359.00" xmlns="http://www.w3.org/2000/svg" xmlns:xlink="http://www.w3.org/1999/xlink">
<g id="graph0" class="graph" transform="scale(0.785383 0.785383) rotate(0) translate(4 452.5)">
<polygon fill="white" stroke="none" points="-4,4 -4,-452.5 912.75,-452.5 912.75,4 -4,4"/>
<!-- 0 -->
<g id="node1" class="node">
<title>0</title>
<path fill="#f3f4f6" stroke="black" d="M70,-147C70,-147 12,-147 12,-147 6,-147 0,-141 0,-135 0,-135 0,-37 0,-37 0,-31 6,-25 12,-25 12,-25 70,-25 70,-25 76,-25 82,-31 82,-37 82,-37 82,-135 82,-135 82,-141 76,-147 70,-147"/>
<text xml:space="preserve" text-anchor="middle" x="41" y="-133.5" font-family="Courier,monospace" font-size="10.00">State 0</text>
<text xml:space="preserve" text-anchor="middle" x="41" y="-108.75" font-family="Courier,monospace" font-size="10.00">E&#39; → • E</text>
<text xml:space="preserve" text-anchor="middle" x="41" y="-96" font-family="Courier,monospace" font-size="10.00">E → • E + T</text>
<text xml:space="preserve" text-anchor="middle" x="41" y="-83.25" font-family="Courier,monospace" font-size="10.00">E → • T</text>
<text xml:space="preserve" text-anchor="middle" x="41" y="-70.5" font-family="Courier,monospace" font-size="10.00">T → • T * F</text>
<text xml:space="preserve" text-anchor="middle" x="41" y="-57.75" font-family="Courier,monospace" font-size="10.00">T → • F</text>
<text xml:space="preserve" text-anchor="middle" x="41" y="-45" font-family="Courier,monospace" font-size="10.00">F → • ( E )</text>
<text xml:space="preserve" text-anchor="middle" x="41" y="-32.25" font-family="Courier,monospace" font-size="10.00">F → • id</text>
</g>
<!-- 1 -->
<g id="node2" class="node">
<title>1</title>
<path fill="#f3f4f6" stroke="black" d="M193.25,-251.12C193.25,-251.12 135.25,-251.12 135.25,-251.12 129.25,-251.12 123.25,-245.12 123.25,-239.12 123.25,-239.12 123.25,-204.88 123.25,-204.88 123.25,-198.88 129.25,-192.88 135.25,-192.88 135.25,-192.88 193.25,-192.88 193.25,-192.88 199.25,-192.88 205.25,-198.88 205.25,-204.88 205.25,-204.88 205.25,-239.12 205.25,-239.12 205.25,-245.12 199.25,-251.12 193.25,-251.12"/>
<text xml:space="preserve" text-anchor="middle" x="164.25" y="-237.62" font-family="Courier,monospace" font-size="10.00">State 1</text>
<text xml:space="preserve" text-anchor="middle" x="164.25" y="-212.88" font-family="Courier,monospace" font-size="10.00">E&#39; → E •</text>
<text xml:space="preserve" text-anchor="middle" x="164.25" y="-200.12" font-family="Courier,monospace" font-size="10.00">E → E • + T</text>
</g>
<!-- 0&#45;&gt;1 -->
<g id="edge1" class="edge">
<title>0&#45;&gt;1</title>
<path fill="none" stroke="black" d="M82.37,-131.29C97.74,-148.53 115.08,-167.97 129.74,-184.42"/>
<polygon fill="black" stroke="black" points="126.87,-186.45 136.14,-191.59 132.09,-181.79 126.87,-186.45"/>
<text xml:space="preserve" text-anchor="middle" x="102.62" y="-155.95" font-family="Courier,monospace" font-size="9.00">E</text>
</g>
<!-- 2 -->
<g id="node3" class="node">
<title>2</title>
<path fill="#f3f4f6" stroke="black" d="M639.75,-67.12C639.75,-67.12 581.75,-67.12 581.75,-67.12 575.75,-67.12 569.75,-61.12 569.75,-55.12 569.75,-55.12 569.75,-20.88 569.75,-20.88 569.75,-14.88 575.75,-8.88 581.75,-8.88 581.75,-8.88 639.75,-8.88 639.75,-8.88 645.75,-8.88 651.75,-14.88 651.75,-20.88 651.75,-20.88 651.75,-55.12 651.75,-55.12 651.75,-61.12 645.75,-67.12 639.75,-67.12"/>
<text xml:space="preserve" text-anchor="middle" x="610.75" y="-53.62" font-family="Courier,monospace" font-size="10.00">State 2</text>
<text xml:space="preserve" text-anchor="middle" x="610.75" y="-28.88" font-family="Courier,monospace" font-size="10.00">E → T •</text>
<text xml:space="preserve" text-anchor="middle" x="610.75" y="-16.12" font-family="Courier,monospace" font-size="10.00">T → T • * F</text>
</g>
<!-- 0&#45;&gt;2 -->
<g id="edge2" class="edge">
<title>0&#45;&gt;2</title>
<path fill="none" stroke="black" d="M82.35,-38.72C103.94,-18.74 132.41,0 163.25,0 163.25,0 163.25,0 411.75,0 462.35,0 518.95,-12.12 558.63,-22.67"/>
<polygon fill="black" stroke="black" points="557.58,-26.01 568.15,-25.26 559.42,-19.26 557.58,-26.01"/>
<text xml:space="preserve" text-anchor="middle" x="287.5" y="-1.95" font-family="Courier,monospace" font-size="9.00">T</text>
</g>
<!-- 3 -->
<g id="node4" class="node">
<title>3</title>
<path fill="#f3f4f6" stroke="black" d="M627.75,-130.75C627.75,-130.75 593.75,-130.75 593.75,-130.75 587.75,-130.75 581.75,-124.75 581.75,-118.75 581.75,-118.75 581.75,-97.25 581.75,-97.25 581.75,-91.25 587.75,-85.25 593.75,-85.25 593.75,-85.25 627.75,-85.25 627.75,-85.25 633.75,-85.25 639.75,-91.25 639.75,-97.25 639.75,-97.25 639.75,-118.75 639.75,-118.75 639.75,-124.75 633.75,-130.75 627.75,-130.75"/>
<text xml:space="preserve" text-anchor="middle" x="610.75" y="-117.25" font-family="Courier,monospace" font-size="10.00">State 3</text>
<text xml:space="preserve" text-anchor="middle" x="610.75" y="-92.5" font-family="Courier,monospace" font-size="10.00">T → F •</text>
</g>
<!-- 0&#45;&gt;3 -->
<g id="edge3" class="edge">
<title>0&#45;&gt;3</title>
<path fill="none" stroke="black" d="M82.49,-66.04C105.58,-56.45 135.39,-47 163.25,-47 163.25,-47 163.25,-47 411.75,-47 475.2,-47 492.3,-52.8 551.75,-75 558.37,-77.47 565.14,-80.64 571.59,-84.04"/>
<polygon fill="black" stroke="black" points="569.66,-86.97 580.1,-88.75 573.05,-80.84 569.66,-86.97"/>
<text xml:space="preserve" text-anchor="middle" x="287.5" y="-48.95" font-family="Courier,monospace" font-size="9.00">F</text>
</g>
<!-- 4 -->
<g id="node5" class="node">
<title>4</title>
<path fill="#f3f4f6" stroke="black" d="M439.75,-244C439.75,-244 381.75,-244 381.75,-244 375.75,-244 369.75,-238 369.75,-232 369.75,-232 369.75,-134 369.75,-134 369.75,-128 375.75,-122 381.75,-122 381.75,-122 439.75,-122 439.75,-122 445.75,-122 451.75,-128 451.75,-134 451.75,-134 451.75,-232 451.75,-232 451.75,-238 445.75,-244 439.75,-244"/>
<text xml:space="preserve" text-anchor="middle" x="410.75" y="-230.5" font-family="Courier,monospace" font-size="10.00">State 4</text>
<text xml:space="preserve" text-anchor="middle" x="410.75" y="-205.75" font-family="Courier,monospace" font-size="10.00">F → ( • E )</text>
<text xml:space="preserve" text-anchor="middle" x="410.75" y="-193" font-family="Courier,monospace" font-size="10.00">E → • E + T</text>
<text xml:space="preserve" text-anchor="middle" x="410.75" y="-180.25" font-family="Courier,monospace" font-size="10.00">E → • T</text>
<text xml:space="preserve" text-anchor="middle" x="410.75" y="-167.5" font-family="Courier,monospace" font-size="10.00">T → • T * F</text>
<text xml:space="preserve" text-anchor="middle" x="410.75" y="-154.75" font-family="Courier,monospace" font-size="10.00">T → • F</text>
<text xml:space="preserve" text-anchor="middle" x="410.75" y="-142" font-family="Courier,monospace" font-size="10.00">F → • ( E )</text>
<text xml:space="preserve" text-anchor="middle" x="410.75" y="-129.25" font-family="Courier,monospace" font-size="10.00">F → • id</text>
</g>
<!-- 0&#45;&gt;4 -->
<g id="edge4" class="edge">
<title>0&#45;&gt;4</title>
<path fill="none" stroke="black" d="M82.41,-96.66C149.67,-114.4 284.49,-149.96 358.39,-169.45"/>
<polygon fill="black" stroke="black" points="357.25,-172.77 367.81,-171.94 359.04,-166 357.25,-172.77"/>
<text xml:space="preserve" text-anchor="middle" x="225.88" y="-136.45" font-family="Courier,monospace" font-size="9.00">(</text>
</g>
<!-- 5 -->
<g id="node6" class="node">
<title>5</title>
<path fill="#f3f4f6" stroke="black" d="M887.75,-329.75C887.75,-329.75 847.75,-329.75 847.75,-329.75 841.75,-329.75 835.75,-323.75 835.75,-317.75 835.75,-317.75 835.75,-296.25 835.75,-296.25 835.75,-290.25 841.75,-284.25 847.75,-284.25 847.75,-284.25 887.75,-284.25 887.75,-284.25 893.75,-284.25 899.75,-290.25 899.75,-296.25 899.75,-296.25 899.75,-317.75 899.75,-317.75 899.75,-323.75 893.75,-329.75 887.75,-329.75"/>
<text xml:space="preserve" text-anchor="middle" x="867.75" y="-316.25" font-family="Courier,monospace" font-size="10.00">State 5</text>
<text xml:space="preserve" text-anchor="middle" x="867.75" y="-291.5" font-family="Courier,monospace" font-size="10.00">F → id •</text>
</g>
<!-- 0&#45;&gt;5 -->
<g id="edge5" class="edge">
<title>0&#45;&gt;5</title>
<path fill="none" stroke="black" d="M50.26,-147.31C65.58,-248.16 102.49,-438 163.25,-438 163.25,-438 163.25,-438 740.25,-438 794.44,-438 832.77,-379.29 852.19,-340.47"/>
<polygon fill="black" stroke="black" points="855.33,-342.01 856.5,-331.48 849.02,-338.98 855.33,-342.01"/>
<text xml:space="preserve" text-anchor="middle" x="410.75" y="-439.95" font-family="Courier,monospace" font-size="9.00">id</text>
</g>
<!-- 6 -->
<g id="node7" class="node">
<title>6</title>
<path fill="#f3f4f6" stroke="black" d="M316.5,-304.25C316.5,-304.25 258.5,-304.25 258.5,-304.25 252.5,-304.25 246.5,-298.25 246.5,-292.25 246.5,-292.25 246.5,-219.75 246.5,-219.75 246.5,-213.75 252.5,-207.75 258.5,-207.75 258.5,-207.75 316.5,-207.75 316.5,-207.75 322.5,-207.75 328.5,-213.75 328.5,-219.75 328.5,-219.75 328.5,-292.25 328.5,-292.25 328.5,-298.25 322.5,-304.25 316.5,-304.25"/>
<text xml:space="preserve" text-anchor="middle" x="287.5" y="-290.75" font-family="Courier,monospace" font-size="10.00">State 6</text>
<text xml:space="preserve" text-anchor="middle" x="287.5" y="-266" font-family="Courier,monospace" font-size="10.00">E → E + • T</text>
<text xml:space="preserve" text-anchor="middle" x="287.5" y="-253.25" font-family="Courier,monospace" font-size="10.00">T → • T * F</text>
<text xml:space="preserve" text-anchor="middle" x="287.5" y="-240.5" font-family="Courier,monospace" font-size="10.00">T → • F</text>
<text xml:space="preserve" text-anchor="middle" x="287.5" y="-227.75" font-family="Courier,monospace" font-size="10.00">F → • ( E )</text>
<text xml:space="preserve" text-anchor="middle" x="287.5" y="-215" font-family="Courier,monospace" font-size="10.00">F → • id</text>
</g>
<!-- 1&#45;&gt;6 -->
<g id="edge6" class="edge">
<title>1&#45;&gt;6</title>
<path fill="none" stroke="black" d="M205.62,-233.32C215.13,-235.99 225.4,-238.87 235.31,-241.65"/>
<polygon fill="black" stroke="black" points="234.27,-244.99 244.84,-244.32 236.16,-238.25 234.27,-244.99"/>
<text xml:space="preserve" text-anchor="middle" x="225.88" y="-240.95" font-family="Courier,monospace" font-size="9.00">+</text>
</g>
<!-- 7 -->
<g id="node8" class="node">
<title>7</title>
<path fill="#f3f4f6" stroke="black" d="M768.25,-194.5C768.25,-194.5 710.25,-194.5 710.25,-194.5 704.25,-194.5 698.25,-188.5 698.25,-182.5 698.25,-182.5 698.25,-135.5 698.25,-135.5 698.25,-129.5 704.25,-123.5 710.25,-123.5 710.25,-123.5 768.25,-123.5 768.25,-123.5 774.25,-123.5 780.25,-129.5 780.25,-135.5 780.25,-135.5 780.25,-182.5 780.25,-182.5 780.25,-188.5 774.25,-194.5 768.25,-194.5"/>
<text xml:space="preserve" text-anchor="middle" x="739.25" y="-181" font-family="Courier,monospace" font-size="10.00">State 7</text>
<text xml:space="preserve" text-anchor="middle" x="739.25" y="-156.25" font-family="Courier,monospace" font-size="10.00">T → T * • F</text>
<text xml:space="preserve" text-anchor="middle" x="739.25" y="-143.5" font-family="Courier,monospace" font-size="10.00">F → • ( E )</text>
<text xml:space="preserve" text-anchor="middle" x="739.25" y="-130.75" font-family="Courier,monospace" font-size="10.00">F → • id</text>
</g>
<!-- 2&#45;&gt;7 -->
<g id="edge7" class="edge">
<title>2&#45;&gt;7</title>
<path fill="none" stroke="black" d="M642.77,-67.44C645.81,-70.33 648.84,-73.22 651.75,-76 665.09,-88.74 679.56,-102.6 692.77,-115.28"/>
<polygon fill="black" stroke="black" points="690.09,-117.56 699.73,-121.96 694.94,-112.51 690.09,-117.56"/>
<text xml:space="preserve" text-anchor="middle" x="675" y="-103.01" font-family="Courier,monospace" font-size="9.00">*</text>
</g>
<!-- 4&#45;&gt;2 -->
<g id="edge9" class="edge">
<title>4&#45;&gt;2</title>
<path fill="none" stroke="black" d="M452.13,-139.88C457.85,-134.49 463.82,-129.22 469.75,-124.5 497.84,-102.18 532.06,-80.94 559.63,-65.09"/>
<polygon fill="black" stroke="black" points="561.19,-68.24 568.15,-60.26 557.73,-62.15 561.19,-68.24"/>
<text xml:space="preserve" text-anchor="middle" x="510.75" y="-126.45" font-family="Courier,monospace" font-size="9.00">T</text>
</g>
<!-- 4&#45;&gt;3 -->
<g id="edge10" class="edge">
<title>4&#45;&gt;3</title>
<path fill="none" stroke="black" d="M452.14,-166.79C458.02,-164.59 464.02,-162.43 469.75,-160.5 505.68,-148.41 516.42,-150.76 551.75,-137 558.22,-134.48 564.94,-131.49 571.42,-128.4"/>
<polygon fill="black" stroke="black" points="572.53,-131.76 579.96,-124.2 569.44,-125.48 572.53,-131.76"/>
<text xml:space="preserve" text-anchor="middle" x="510.75" y="-162.45" font-family="Courier,monospace" font-size="9.00">F</text>
</g>
<!-- 4&#45;&gt;4 -->
<g id="edge11" class="edge">
<title>4&#45;&gt;4</title>
<path fill="none" stroke="black" d="M399.96,-244.28C401.44,-254.75 405.03,-262 410.75,-262 414.14,-262 416.79,-259.44 418.69,-255.17"/>
<polygon fill="black" stroke="black" points="422.01,-256.3 421.15,-245.74 415.24,-254.53 422.01,-256.3"/>
<text xml:space="preserve" text-anchor="middle" x="410.75" y="-263.95" font-family="Courier,monospace" font-size="9.00">(</text>
</g>
<!-- 4&#45;&gt;5 -->
<g id="edge12" class="edge">
<title>4&#45;&gt;5</title>
<path fill="none" stroke="black" d="M452.13,-194C537.78,-217.35 736.97,-271.63 824.37,-295.45"/>
<polygon fill="black" stroke="black" points="823.41,-298.82 833.98,-298.07 825.25,-292.06 823.41,-298.82"/>
<text xml:space="preserve" text-anchor="middle" x="675" y="-256.93" font-family="Courier,monospace" font-size="9.00">id</text>
</g>
<!-- 8 -->
<g id="node9" class="node">
<title>8</title>
<path fill="#f3f4f6" stroke="black" d="M639.75,-356.12C639.75,-356.12 581.75,-356.12 581.75,-356.12 575.75,-356.12 569.75,-350.12 569.75,-344.12 569.75,-344.12 569.75,-309.88 569.75,-309.88 569.75,-303.88 575.75,-297.88 581.75,-297.88 581.75,-297.88 639.75,-297.88 639.75,-297.88 645.75,-297.88 651.75,-303.88 651.75,-309.88 651.75,-309.88 651.75,-344.12 651.75,-344.12 651.75,-350.12 645.75,-356.12 639.75,-356.12"/>
<text xml:space="preserve" text-anchor="middle" x="610.75" y="-342.62" font-family="Courier,monospace" font-size="10.00">State 8</text>
<text xml:space="preserve" text-anchor="middle" x="610.75" y="-317.88" font-family="Courier,monospace" font-size="10.00">E → E • + T</text>
<text xml:space="preserve" text-anchor="middle" x="610.75" y="-305.12" font-family="Courier,monospace" font-size="10.00">F → ( E • )</text>
</g>
<!-- 4&#45;&gt;8 -->
<g id="edge8" class="edge">
<title>4&#45;&gt;8</title>
<path fill="none" stroke="black" d="M452.15,-222.56C457.78,-226.83 463.71,-230.79 469.75,-234 503.01,-251.69 521.35,-233.24 551.75,-255.5 563.84,-264.35 560.61,-272.13 569.75,-284 571.06,-285.7 572.42,-287.4 573.82,-289.11"/>
<polygon fill="black" stroke="black" points="570.89,-291.08 580.05,-296.4 576.22,-286.53 570.89,-291.08"/>
<text xml:space="preserve" text-anchor="middle" x="510.75" y="-257.45" font-family="Courier,monospace" font-size="9.00">E</text>
</g>
<!-- 6&#45;&gt;3 -->
<g id="edge14" class="edge">
<title>6&#45;&gt;3</title>
<path fill="none" stroke="black" d="M299.84,-207.54C311.06,-171.62 332.17,-125.13 369.75,-102.5 431.82,-65.12 520.27,-81.05 570.65,-95.12"/>
<polygon fill="black" stroke="black" points="569.36,-98.39 579.94,-97.83 571.32,-91.67 569.36,-98.39"/>
<text xml:space="preserve" text-anchor="middle" x="410.75" y="-104.45" font-family="Courier,monospace" font-size="9.00">F</text>
</g>
<!-- 6&#45;&gt;4 -->
<g id="edge15" class="edge">
<title>6&#45;&gt;4</title>
<path fill="none" stroke="black" d="M328.87,-231.69C338.79,-225.72 349.53,-219.26 359.84,-213.05"/>
<polygon fill="black" stroke="black" points="361.49,-216.14 368.26,-207.98 357.88,-210.14 361.49,-216.14"/>
<text xml:space="preserve" text-anchor="middle" x="349.12" y="-221.45" font-family="Courier,monospace" font-size="9.00">(</text>
</g>
<!-- 6&#45;&gt;5 -->
<g id="edge16" class="edge">
<title>6&#45;&gt;5</title>
<path fill="none" stroke="black" d="M308.28,-304.71C327.72,-343.74 361.51,-392 409.75,-392 409.75,-392 409.75,-392 740.25,-392 780.01,-392 816.68,-362.71 840.19,-338.51"/>
<polygon fill="black" stroke="black" points="842.63,-341.03 846.91,-331.33 837.52,-336.25 842.63,-341.03"/>
<text xml:space="preserve" text-anchor="middle" x="610.75" y="-393.95" font-family="Courier,monospace" font-size="9.00">id</text>
</g>
<!-- 9 -->
<g id="node10" class="node">
<title>9</title>
<path fill="#f3f4f6" stroke="black" d="M539.75,-330.12C539.75,-330.12 481.75,-330.12 481.75,-330.12 475.75,-330.12 469.75,-324.12 469.75,-318.12 469.75,-318.12 469.75,-283.88 469.75,-283.88 469.75,-277.88 475.75,-271.88 481.75,-271.88 481.75,-271.88 539.75,-271.88 539.75,-271.88 545.75,-271.88 551.75,-277.88 551.75,-283.88 551.75,-283.88 551.75,-318.12 551.75,-318.12 551.75,-324.12 545.75,-330.12 539.75,-330.12"/>
<text xml:space="preserve" text-anchor="middle" x="510.75" y="-316.62" font-family="Courier,monospace" font-size="10.00">State 9</text>
<text xml:space="preserve" text-anchor="middle" x="510.75" y="-291.88" font-family="Courier,monospace" font-size="10.00">E → E + T •</text>
<text xml:space="preserve" text-anchor="middle" x="510.75" y="-279.12" font-family="Courier,monospace" font-size="10.00">T → T • * F</text>
</g>
<!-- 6&#45;&gt;9 -->
<g id="edge13" class="edge">
<title>6&#45;&gt;9</title>
<path fill="none" stroke="black" d="M328.62,-270.37C341.61,-274.61 356.17,-278.93 369.75,-282 398.61,-288.52 431.37,-293.12 457.93,-296.15"/>
<polygon fill="black" stroke="black" points="457.46,-299.62 467.78,-297.23 458.22,-292.66 457.46,-299.62"/>
<text xml:space="preserve" text-anchor="middle" x="349.12" y="-278.97" font-family="Courier,monospace" font-size="9.00">T</text>
</g>
<!-- 7&#45;&gt;4 -->
<g id="edge18" class="edge">
<title>7&#45;&gt;4</title>
<path fill="none" stroke="black" d="M697.98,-161.96C638.8,-166.31 528.35,-174.43 463.31,-179.21"/>
<polygon fill="black" stroke="black" points="463.34,-175.7 453.62,-179.92 463.85,-182.68 463.34,-175.7"/>
<text xml:space="preserve" text-anchor="middle" x="610.75" y="-172.95" font-family="Courier,monospace" font-size="9.00">(</text>
</g>
<!-- 7&#45;&gt;5 -->
<g id="edge19" class="edge">
<title>7&#45;&gt;5</title>
<path fill="none" stroke="black" d="M780.6,-177.31C790.6,-183.12 800.73,-190.22 808.75,-198.5 829.53,-219.96 844.92,-250.35 854.6,-273.51"/>
<polygon fill="black" stroke="black" points="851.23,-274.53 858.21,-282.51 857.73,-271.92 851.23,-274.53"/>
<text xml:space="preserve" text-anchor="middle" x="803.5" y="-200.45" font-family="Courier,monospace" font-size="9.00">id</text>
</g>
<!-- 10 -->
<g id="node11" class="node">
<title>10</title>
<path fill="#f3f4f6" stroke="black" d="M896.75,-181.75C896.75,-181.75 838.75,-181.75 838.75,-181.75 832.75,-181.75 826.75,-175.75 826.75,-169.75 826.75,-169.75 826.75,-148.25 826.75,-148.25 826.75,-142.25 832.75,-136.25 838.75,-136.25 838.75,-136.25 896.75,-136.25 896.75,-136.25 902.75,-136.25 908.75,-142.25 908.75,-148.25 908.75,-148.25 908.75,-169.75 908.75,-169.75 908.75,-175.75 902.75,-181.75 896.75,-181.75"/>
<text xml:space="preserve" text-anchor="middle" x="867.75" y="-168.25" font-family="Courier,monospace" font-size="10.00">State 10</text>
<text xml:space="preserve" text-anchor="middle" x="867.75" y="-143.5" font-family="Courier,monospace" font-size="10.00">T → T * F •</text>
</g>
<!-- 7&#45;&gt;10 -->
<g id="edge17" class="edge">
<title>7&#45;&gt;10</title>
<path fill="none" stroke="black" d="M780.62,-159C791.58,-159 803.59,-159 815.08,-159"/>
<polygon fill="black" stroke="black" points="814.81,-162.5 824.81,-159 814.81,-155.5 814.81,-162.5"/>
<text xml:space="preserve" text-anchor="middle" x="803.5" y="-160.95" font-family="Courier,monospace" font-size="9.00">F</text>
</g>
<!-- 8&#45;&gt;6 -->
<g id="edge20" class="edge">
<title>8&#45;&gt;6</title>
<path fill="none" stroke="black" d="M569.54,-331.7C563.58,-332.24 557.51,-332.7 551.75,-333 515.35,-334.88 505.81,-338.29 469.75,-333 423.84,-326.26 413.07,-319.64 369.75,-303 359.37,-299.01 348.75,-293.81 338.75,-288.33"/>
<polygon fill="black" stroke="black" points="340.74,-285.43 330.31,-283.53 337.28,-291.51 340.74,-285.43"/>
<text xml:space="preserve" text-anchor="middle" x="410.75" y="-331.78" font-family="Courier,monospace" font-size="9.00">+</text>
</g>
<!-- 11 -->
<g id="node12" class="node">
<title>11</title>
<path fill="#f3f4f6" stroke="black" d="M768.25,-349.75C768.25,-349.75 710.25,-349.75 710.25,-349.75 704.25,-349.75 698.25,-343.75 698.25,-337.75 698.25,-337.75 698.25,-316.25 698.25,-316.25 698.25,-310.25 704.25,-304.25 710.25,-304.25 710.25,-304.25 768.25,-304.25 768.25,-304.25 774.25,-304.25 780.25,-310.25 780.25,-316.25 780.25,-316.25 780.25,-337.75 780.25,-337.75 780.25,-343.75 774.25,-349.75 768.25,-349.75"/>
<text xml:space="preserve" text-anchor="middle" x="739.25" y="-336.25" font-family="Courier,monospace" font-size="10.00">State 11</text>
<text xml:space="preserve" text-anchor="middle" x="739.25" y="-311.5" font-family="Courier,monospace" font-size="10.00">F → ( E ) •</text>
</g>
<!-- 8&#45;&gt;11 -->
<g id="edge21" class="edge">
<title>8&#45;&gt;11</title>
<path fill="none" stroke="black" d="M652.12,-327C663.08,-327 675.09,-327 686.58,-327"/>
<polygon fill="black" stroke="black" points="686.31,-330.5 696.31,-327 686.31,-323.5 686.31,-330.5"/>
<text xml:space="preserve" text-anchor="middle" x="675" y="-328.95" font-family="Courier,monospace" font-size="9.00">)</text>
</g>
<!-- 9&#45;&gt;7 -->
<g id="edge22" class="edge">
<title>9&#45;&gt;7</title>
<path fill="none" stroke="black" d="M551.96,-285.29C557.92,-282.99 563.99,-280.67 569.75,-278.5 618.69,-260.04 638.43,-269.42 680.25,-238 692.5,-228.8 703.31,-216.29 712.17,-203.95"/>
<polygon fill="black" stroke="black" points="714.96,-206.08 717.71,-195.85 709.18,-202.13 714.96,-206.08"/>
<text xml:space="preserve" text-anchor="middle" x="610.75" y="-280.45" font-family="Courier,monospace" font-size="9.00">*</text>
</g>
</g>
</svg>
